<svg width="30" height="30" viewBox="0 0 10 10" fill="none" xmlns="http://www.w3.org/2000/svg">
<path d="M7.14694 6.28931H6.69525L6.53516 6.13493C7.09548 5.48313 7.43282 4.63694 7.43282 3.71641C7.43282 1.66381 5.76901 0 3.71641 0C1.66381 0 0 1.66381 0 3.71641C0 5.76901 1.66381 7.43282 3.71641 7.43282C4.63694 7.43282 5.48313 7.09548 6.13493 6.53516L6.28931 6.69525V7.14694L9.14808 10L10 9.14808L7.14694 6.28931ZM3.71641 6.28931C2.29274 6.28931 1.14351 5.14008 1.14351 3.71641C1.14351 2.29274 2.29274 1.14351 3.71641 1.14351C5.14008 1.14351 6.28931 2.29274 6.28931 3.71641C6.28931 5.14008 5.14008 6.28931 3.71641 6.28931Z" fill="black"/>
</svg>
